<svg xmlns="http://www.w3.org/2000/svg" xmlns:xlink="http://www.w3.org/1999/xlink" width="1200" height="1600" viewBox="0 0 1200 1600"><defs><path id="a" d="M76.625,0 C76.96,2.046 77.135,4.146 77.135,6.287 L77.135,20.47 C77.135,41.77 59.868,59.037 38.567,59.037 C17.267,59.037 0,41.77 0,20.47 L0,6.287 C0,4.146 0.175,2.046 0.51,0 L76.625,0 Z"/></defs><g fill="none" fill-rule="evenodd" transform="translate(377 75)"><g fill-rule="nonzero" transform="translate(8 905)"><path fill="#EBBAAA" d="M287.5 217C299.528762 217 309.302775 226.653726 309.497053 238.63619L309.5 239 309.5 467C309.5 479.150264 299.650264 489 287.5 489 275.471238 489 265.697225 479.346274 265.502947 467.36381L265.5 467 265.5 239C265.5 226.849736 275.349736 217 287.5 217zM139.5 217C151.528762 217 161.302775 226.653726 161.497053 238.63619L161.5 239 161.5 467C161.5 479.150264 151.650264 489 139.5 489 127.471238 489 117.697225 479.346274 117.502947 467.36381L117.5 467 117.5 239C117.5 226.849736 127.349736 217 139.5 217z"/><path fill="#3F4347" d="M260.67,475.58 C260.67,475.58 261.169,442.51 263.662,445.02 C266.156,447.52 277.619,454.04 293.088,454.04 C308.548,454.04 318.025,448.53 321.516,445.02 C325.007,441.51 328.253,475.58 328.253,475.58 L260.67,475.58 Z"/><g transform="translate(240 436)"><path fill="#C2C6CA" d="M72.646,11.89 C76.045,6.37 81.294,5.96 85.469,2.73 C87.637,5.64 87.594,9.98 89.638,15.73 L102.329,30.5 L124.301,52.72 L144.959,63.18 L133.045,77.59 C124.649,71.42 76.653,23.19 72.646,11.89 Z"/><path fill="#E0E2E4" d="M2.436,88.39 C2.436,88.39 1.32,63.71 6.36,49.94 C11.4,36.17 16.217,0.81 16.217,0.81 C16.217,0.81 25.765,10.64 43.217,10.34 L76.105,9.78 C76.105,9.78 105.787,48.79 114.342,53.9 C122.897,59.02 170.828,68.13 170.828,68.13 C179.883,67.98 187.352,75.19 187.513,84.25 L187.658,92.45 L88.236,94.16 L2.436,88.39 Z"/><path fill="#C2C6CA" d="M87.463 31C84.9 27.24 79.664 19.12 79.223 16.74 56.328 21.11 25.367 21.16 13.797 16.39 10.958 25.38 9.701 37.5 9.701 37.5 11.768 41.44 33.986 48.72 42.499 50.06 46.931 46.51 50.265 45.56 53.725 43.51 59.153 40.3 77.324 31.84 87.463 31zM37.978 68.07C34.432 66.17 14.228 59.32 5.155 54.51.817 57.77 1.872 76.7 2.064 87.63L46.032 88.85C43.39 80.62 39.173 69.2 37.978 68.07z"/><path fill="#C2C6CA" d="M62.692 63.2C67.337 64.61 71.111 64.54 73.288 62.96 78.899 58.82 75.541 52.19 74.111 49.59 76.722 52.8 79.315 56.02 81.315 59.5 84.468 64.95 85.716 70.86 83.402 74.57 79.252 81.26 69.769 77.87 63.744 74.97L7.83 48.05 62.692 63.2zM145.608 71.72C158.115 72.99 174.1 73.21 177.025 69.19L156.452 63.58 129.31 53.62 122.382 57.22 123.433 60.18 108.621 69.88 115.268 78.7 115.366 78.66C120.23 76.39 132.978 70.43 145.608 71.72z"/><path fill="#F1F5F9" d="M89.0009242 14.6168521C90.6208571 13.941366 92.4816618 14.7069914 93.1571479 16.3269242 93.8085095 17.8890023 93.119858 19.6750544 91.6173442 20.4063037L91.4470758 20.4831479 86.1950758 22.6731479C84.5751429 23.348634 82.7143382 22.5830086 82.0388521 20.9630758 81.3874905 19.4009977 82.076142 17.6149456 83.5786558 16.8836963L83.7489242 16.8068521 89.0009242 14.6168521zM97.1459242 23.4168521C98.7658571 22.741366 100.626662 23.5069914 101.302148 25.1269242 101.953509 26.6890023 101.264858 28.4750544 99.7623442 29.2063037L99.5920758 29.2831479 94.3400758 31.4731479C92.7201429 32.148634 90.8593382 31.3830086 90.1838521 29.7630758 89.5324905 28.2009977 90.221142 26.4149456 91.7236558 25.6836963L91.8939242 25.6068521 97.1459242 23.4168521zM104.287171 32.2288385C105.906007 31.5507275 107.768051 32.3133357 108.446162 33.9321715 109.100054 35.4931917 108.414299 37.2803577 106.912972 38.0140415L106.742829 38.0911615 101.490829 40.2911615C99.8719927 40.9692725 98.0099494 40.2066643 97.3318385 38.5878285 96.6779457 37.0268083 97.3637013 35.2396423 98.8650278 34.5059585L99.0351715 34.4288385 104.287171 32.2288385zM112.431171 41.0288385C114.050007 40.3507275 115.912051 41.1133357 116.590162 42.7321715 117.244054 44.2931917 116.558299 46.0803577 115.056972 46.8140415L114.886829 46.8911615 109.634829 49.0911615C108.015993 49.7692725 106.153949 49.0066643 105.475838 47.3878285 104.821946 45.8268083 105.507701 44.0396423 107.009028 43.3059585L107.179171 43.2288385 112.431171 41.0288385zM124.570171 49.7588385C126.189007 49.0807275 128.051051 49.8433357 128.729162 51.4621715 129.383054 53.0231917 128.697299 54.8103577 127.195972 55.5440415L127.025829 55.6211615 121.773829 57.8211615C120.154993 58.4992725 118.292949 57.7366643 117.614838 56.1178285 116.960946 54.5568083 117.646701 52.7696423 119.148028 52.0359585L119.318171 51.9588385 124.570171 49.7588385zM1.19 87.39L94.871 89.97 187.874 84.15 189.547 96.17C190.06 99.87 187.3 103.21 183.576 103.4L97.126 107.82 48.832 109.19.502 108.45 1.19 87.39z"/><path fill="#9EA5AC" d="M188.168051,98.4103769 L189.981949,104.129623 C181.830275,106.714981 101.165476,110.715691 70.4644623,111.293112 L67.5521239,111.337459 C60.4198708,111.416455 49.8151062,111.334632 35.915131,111.124267 L26.0352759,110.963284 L0.866641939,110.50961 L0.963358061,104.51039 L27.1810897,104.982099 L37.6192733,105.149008 C52.0029624,105.36014 62.6995344,105.426391 69.4466816,105.310439 L72.1836627,105.256519 C102.849787,104.581422 179.42175,100.756822 187.924623,98.4809872 L188.168051,98.4103769 Z"/></g><g transform="translate(0 436)"><path fill="#C2C6CA" d="M117.354,11.89 C113.955,6.37 108.706,5.96 104.531,2.73 C102.363,5.64 102.406,9.98 100.362,15.73 L87.6708,30.5 L65.6994,52.72 L45.0409,63.18 L56.955,77.59 C65.3511,71.42 113.347,23.19 117.354,11.89 Z"/><path fill="#E0E2E4" d="M187.564,88.39 C187.564,88.39 188.68,63.71 183.64,49.94 C178.6,36.17 173.783,0.81 173.783,0.81 C173.783,0.81 164.235,10.64 146.783,10.34 L113.895,9.78 C113.895,9.78 84.2134,48.79 75.6584,53.9 C67.1034,59.02 19.1721,68.13 19.1721,68.13 C10.1168,67.98 2.6479,75.19 2.4873,84.25 L2.3417,92.45 L101.764,94.16 L187.564,88.39 Z"/><path fill="#C2C6CA" d="M102.537 31C105.1 27.24 110.336 19.12 110.777 16.74 133.672 21.11 164.633 21.16 176.203 16.39 179.042 25.38 180.299 37.5 180.299 37.5 178.232 41.44 156.014 48.72 147.501 50.06 143.069 46.51 139.735 45.56 136.275 43.51 130.847 40.3 112.676 31.84 102.537 31zM152.022 68.07C155.568 66.17 175.772 59.32 184.845 54.51 189.183 57.77 188.128 76.7 187.936 87.63L143.968 88.85C146.61 80.62 150.827 69.2 152.022 68.07z"/><path fill="#C2C6CA" d="M127.308 63.2C122.663 64.61 118.889 64.54 116.712 62.96 111.101 58.82 114.459 52.19 115.889 49.59 113.278 52.8 110.685 56.02 108.685 59.5 105.532 64.95 104.284 70.86 106.598 74.57 110.748 81.26 120.231 77.87 126.256 74.97L182.17 48.05 127.308 63.2zM44.392 71.72C31.8847 72.99 15.9004 73.21 12.9747 69.19L33.5481 63.58 60.69 53.62 67.6183 57.22 66.5675 60.18 81.3789 69.88 74.7319 78.7 74.6338 78.66C69.7705 76.39 57.0222 70.43 44.392 71.72z"/><path fill="#F1F5F9" d="M96.8428521 16.3269242C97.4942137 14.7648461 99.2477402 13.9971432 100.824655 14.5499663L100.999076 14.6168521 106.251076 16.8068521C107.871009 17.4823382 108.636634 19.3431429 107.961148 20.9630758 107.309786 22.5251539 105.55626 23.2928568 103.979345 22.7400337L103.804924 22.6731479 98.5529242 20.4831479C96.9329914 19.8076618 96.167366 17.9468571 96.8428521 16.3269242zM88.6982852 25.1268449C89.349689 23.5647844 91.1032363 22.7971289 92.680136 23.3499947L92.8545551 23.4168852 98.1061551 25.6068852C99.7260697 26.2824151 100.491645 28.1432405 99.8161148 29.7631551 99.164711 31.3252156 97.4111637 32.0928711 95.834264 31.5400053L95.6598449 31.4731148 90.4082449 29.2831148C88.7883303 28.6075849 88.0227553 26.7467595 88.6982852 25.1268449zM81.5542301 33.9321914C82.2081123 32.3711667 83.9628756 31.6062952 85.5388959 32.1616629L85.7132086 32.2288301 90.9653086 34.4288301C92.5841491 35.1069301 93.3467699 36.9689682 92.6686699 38.5878086 92.0147877 40.1488333 90.2600244 40.9137048 88.6840041 40.3583371L88.5096914 40.2911699 83.2575914 38.0911699C81.6387509 37.4130699 80.8761301 35.5510318 81.5542301 33.9321914zM73.4094301 42.7321914C74.0633123 41.1711667 75.8180756 40.4062952 77.3940959 40.9616629L77.5684086 41.0288301 82.8205086 43.2288301C84.4393491 43.9069301 85.2019699 45.7689682 84.5238699 47.3878086 83.8699877 48.9488333 82.1152244 49.7137048 80.5392041 49.1583371L80.3648914 49.0911699 75.1127914 46.8911699C73.4939509 46.2130699 72.7313301 44.3510318 73.4094301 42.7321914zM61.2708385 51.4621715C61.9247312 49.9011512 63.6794997 49.1362916 65.2555162 49.69167L65.4298285 49.7588385 70.6818285 51.9588385C72.3006643 52.6369494 73.0632725 54.4989927 72.3851615 56.1178285 71.7312688 57.6788488 69.9765003 58.4437084 68.4004838 57.88833L68.2261715 57.8211615 62.9741715 55.6211615C61.3553357 54.9430506 60.5927275 53.0810073 61.2708385 51.4621715zM188.81 87.39L95.129 89.97 2.1265 84.15.45336 96.17C-.06031 99.87 2.7002 103.21 6.4236 103.4L92.874 107.82 141.168 109.19 189.498 108.45 188.81 87.39z"/><path fill="#9EA5AC" d="M1.83161534,98.4103664 C8.97801042,100.676802 86.8308453,104.574391 117.816553,105.256523 L121.714562,105.328087 C128.500361,105.418582 138.796132,105.348411 152.380727,105.149008 L163.861559,104.964171 L189.036642,104.51039 L189.133358,110.50961 L162.920912,110.981232 L151.666175,111.16005 C138.419421,111.351354 128.349954,111.417283 121.625014,111.327425 L120.450682,111.309561 C90.7714703,110.80179 9.89126421,106.821852 0.286883369,104.208406 L0.0177846555,104.129634 L1.83161534,98.4103664 Z"/></g><path fill="#35383E" d="M215,113.77 C278.513,113.77 330,90.264 330,61.269 C330,32.274 278.513,8.769 215,8.769 C151.487,8.769 100,32.274 100,61.269 C100,90.264 151.487,113.77 215,113.77 Z"/><polygon fill="#35383E" points="216 .769 71 .769 96 354.77 106.715 409.77 174.715 409.77 181 364.77"/><polygon fill="#35383E" points="214 .769 359 .769 334 354.77 323.285 409.77 255.285 409.77 249 364.77"/><polygon fill="#1D1F23" points="252 406 328 406 324 428 255.743 428"/><polygon fill="#1D1F23" points="178 406 102 406 106 428 174.257 428"/></g><g fill-rule="nonzero" transform="translate(0 406)"><path fill="#40424E" d="M222.999997 126C283.750997 126 332.999997 102.495 332.999997 73.5 332.999997 44.505 283.750997 21 222.999997 21 162.248997 21 112.999997 44.505 112.999997 73.5 112.999997 102.495 162.248997 126 222.999997 126zM388.169997 143.964C373.397997 111.744 352.160997 103 352.160997 103L338.999997 280.054 338.999997 547C482.761997 502.308 463.170997 307.544 388.169997 143.964zM57.8298966 143.964C72.6023966 111.744 93.8394966 103 93.8394966 103L107 280.054 107 547C-36.7613034 502.308-17.1707034 307.544 57.8298966 143.964z"/><path fill="#313C52" d="M75.0348966,143.863 C73.8514966,120.072 89.6158966,98.749 112.707997,92.906 L222.999997,65 L333.291997,92.906 C356.383997,98.749 372.148997,120.072 370.964997,143.863 L362.999997,304 L372.639997,528.609 C372.847997,533.461 369.572997,537.747 364.815997,538.724 C341.179997,543.576 271.415997,557 222.999997,557 C174.583997,557 104.819997,543.576 81.1836966,538.724 C76.4266966,537.747 73.1518966,533.461 73.3601966,528.609 L83.0000966,304 L75.0348966,143.863 Z"/><path fill="#40424E" d="M107.999997 449C107.999997 417.52 133.519997 392 164.999997 392L222.999997 392 280.999997 392C312.479997 392 337.999997 417.52 337.999997 449L337.999997 454.5 337.999997 517 107.999997 517 107.999997 454.5 107.999997 449zM260.480997 172.425C293.048997 166.005 352.554997 82.724 326.634997 60.077 305.180997 41.332 265.568997 70.108 260.480997 90.17 256.409997 106.22 245.213997 145.675 238.089997 156.375 229.947997 164.066 227.911997 178.845 260.480997 172.425zM185.518997 172.425C152.950997 166.005 93.4454966 82.724 119.364997 60.077 140.818997 41.332 180.430997 70.108 185.518997 90.17 189.589997 106.22 200.785997 145.675 207.909997 156.375 216.051997 164.066 218.087997 178.845 185.518997 172.425z"/><path fill="#325944" d="M262.999997 149C266.785448 149 269.869095 152.004783 269.995938 155.75935L269.999997 156 269.999997 316C269.999997 319.865993 266.86599 323 262.999997 323 259.214545 323 256.130898 319.995217 256.004056 316.24065L255.999997 316 255.999997 156C255.999997 152.134007 259.134003 149 262.999997 149zM182.999997 149C186.785448 149 189.869095 152.004783 189.995938 155.75935L189.999997 156 189.999997 251C189.999997 254.865993 186.86599 258 182.999997 258 179.214545 258 176.130898 254.995217 176.004056 251.24065L175.999997 251 175.999997 156C175.999997 152.134007 179.134003 149 182.999997 149z"/><path fill="#40424E" d="M262.999997 308C265.688751 308 267.881815 310.122307 267.995377 312.78311L267.999997 313 267.999997 328C267.999997 330.761424 265.76142 333 262.999997 333 260.311242 333 258.118178 330.877693 258.004616 328.21689L257.999997 328 257.999997 313C257.999997 310.238576 260.238573 308 262.999997 308zM182.999997 243C185.688751 243 187.881815 245.122307 187.995377 247.78311L187.999997 248 187.999997 263C187.999997 265.761424 185.76142 268 182.999997 268 180.311242 268 178.118178 265.877693 178.004616 263.21689L177.999997 263 177.999997 248C177.999997 245.238576 180.238573 243 182.999997 243z"/><rect width="70" height="115" x="188" fill="#EBBAAA" rx="35"/><path fill="#6686B7" d="M222.934997 115C185.434997 93 187.934997 61 187.934997 61 154.563997 92.601 153.058997 127.056 175.727997 166.608 179.934997 118.5 222.934997 115 222.934997 115zM223.064997 115C260.564997 93 258.064997 61 258.064997 61 291.436997 92.601 292.940997 127.056 270.271997 166.608 266.064997 118.5 223.064997 115 223.064997 115z"/></g><g transform="translate(34)"><path fill="#C99584" fill-rule="nonzero" d="M340.0001 334.768976C362.0911 334.768976 380.0001 316.859976 380.0001 294.768976 380.0001 272.676976 362.0911 254.768976 340.0001 254.768976 317.9091 254.768976 300.0001 272.676976 300.0001 294.768976 300.0001 316.859976 317.9091 334.768976 340.0001 334.768976zM40 334.768976C17.9086 334.768976-1.26476607e-12 316.859976-1.26476607e-12 294.768976-1.26476607e-12 272.676976 17.9086 254.768976 40 254.768976 62.0914 254.768976 80.0001 272.676976 80.0001 294.768976 80.0001 316.859976 62.0914 334.768976 40 334.768976z" opacity=".5"/><path fill="#F4D5CC" fill-rule="nonzero" d="M39.0002,202.999976 C39.0002,120.156976 106.1571,52.9999762 189.0001,52.9999762 C271.8431,52.9999762 339.0001,120.156976 339.0001,202.999976 L339.0001,279.469976 L339.0001,312.999976 C339.0001,395.842976 271.8431,462.999976 189.0001,462.999976 C106.1571,462.999976 39.0002,395.842976 39.0002,312.999976 L39.0002,279.469976 L39.0002,202.999976 Z"/><g transform="translate(151 351)"><path fill="#393939" d="M77.135,6.603 L77.135,20.469 C77.135,41.769 59.868,59.037 38.567,59.037 C17.267,59.037 0,41.769 0,20.469 L0,6.603 L77.135,6.603 Z"/><mask id="b" fill="#fff"><use xlink:href="#a"/></mask><g fill-rule="nonzero" mask="url(#b)"><g transform="translate(0 4)"><ellipse cx="36.51" cy="55.942" fill="#FF6C6C" rx="23.258" ry="12.667" transform="matrix(-1 0 0 1 73.02 0)"/><rect width="77.135" height="15.907" y=".604" fill="#FFF" transform="matrix(-1 0 0 1 77.135 0)"/></g></g></g><path fill="#A9D0BA" fill-rule="nonzero" d="M343.9921 161.254976C344.2241 154.984976 339.6831 149.769976 334.0001 149.769976 328.1041 149.769976 323.4891 155.363976 324.0461 161.838976L333.4611 271.541976C333.6191 273.375976 335.0121 274.769976 336.6741 274.769976 338.4111 274.769976 339.8311 273.262976 339.9061 271.357976L343.9921 161.254976zM34.0087 161.254976C33.7765 154.984976 38.3173 149.769976 44.0002 149.769976 49.8966 149.769976 54.5117 155.363976 53.9545 161.838976L44.5387 271.541976C44.3809 273.375976 42.988 274.769976 41.3259 274.769976 39.5894 274.769976 38.1687 273.262976 38.0944 271.357976L34.0087 161.254976z"/><path fill="#688274" fill-rule="nonzero" d="M235.9921,122.544976 C295.9861,122.544976 327.5251,121.822976 329.9821,177.414976 C340.0371,195.493976 354.2581,194.091976 356.6061,161.190976 C364.1241,55.8204762 262.9891,-48.5526238 155.0001,24.2758762 L189.0001,72.1631762 C189.0001,72.1631762 225.9931,87.1279762 235.9921,122.544976 Z"/><path fill="#688274" fill-rule="nonzero" d="M142.0081,122.544976 C82.0141,122.544976 50.4755,121.822976 48.0179,177.414976 C37.9628,195.493976 23.7423,194.091976 21.3947,161.190976 C13.8761,55.8204762 115.0111,-48.5526238 223.0001,24.2758762 L189.0001,72.1631762 C189.0001,72.1631762 152.0071,87.1279762 142.0081,122.544976 Z"/><path fill="#82A190" fill-rule="nonzero" d="M234.0001,121.000976 C224.2721,89.9509762 205.5001,83.5004762 189.0001,72.0004762 C220.5001,72.0006762 290.0211,35.5005762 312.2501,108.300976 C332.2501,173.800976 361.2501,200.800976 361.2501,200.800976 L332.2501,200.800976 C235.2501,200.800976 245.2081,156.773976 234.0001,121.000976 Z"/><path fill="#82A190" fill-rule="nonzero" d="M144.3331,121.000976 C154.0611,89.9509762 172.8331,83.5004762 189.3331,72.0004762 C157.8331,72.0006762 88.3121,35.5005762 66.0831,108.300976 C46.0837,173.800976 17.0832,200.800976 17.0832,200.800976 L46.0832,200.800976 C143.0831,200.800976 133.1251,156.773976 144.3331,121.000976 Z"/><path fill="#393939" fill-rule="nonzero" d="M224.017071 204.186633C224.333239 198.766607 228.909887 194.607374 234.30279 194.773482L234.582443 194.785947 294.582443 198.285947C300.095918 198.607566 304.304749 203.337845 303.983129 208.85132 303.666961 214.271346 299.090313 218.430578 293.69741 218.26447L293.417757 218.252006 233.417757 214.752006C227.904282 214.430386 223.695451 209.700108 224.017071 204.186633zM143.417757 194.785947C148.931232 194.464327 153.66151 198.673158 153.983129 204.186633 154.299298 209.606659 150.237289 214.269813 144.861649 214.73187L144.582443 214.752006 84.5824434 218.252006C79.0689685 218.573625 74.33869 214.364795 74.0170706 208.85132 73.7009024 203.431293 77.762911 198.76814 83.1385505 198.306082L83.4177566 198.285947 143.417757 194.785947z"/><path fill="#EBBAAA" fill-rule="nonzero" d="M182.927672,280.053025 L197.072528,289.482928 C192.265105,296.694062 188.5001,307.51845 188.5001,315.392976 C188.5001,322.985996 191.242095,326.177683 199.636855,326.266084 L200.0001,326.267976 L200.0001,343.267976 C181.456981,343.267976 171.5001,332.066485 171.5001,315.392976 C171.5001,304.097868 176.199035,290.38673 182.578077,280.583815 L182.927672,280.053025 Z"/><path fill="#000" fill-rule="nonzero" d="M248.5371 229.175976C255.062557 229.175976 260.371493 234.384521 260.5333 240.871001L260.5371 241.175976 260.5371 269.065976C260.5371 275.693393 255.164517 281.065976 248.5371 281.065976 242.011643 281.065976 236.702707 275.857432 236.5409 269.370951L236.5371 269.065976 236.5371 241.175976C236.5371 234.548559 241.909683 229.175976 248.5371 229.175976zM123.4601 229.175976C129.985557 229.175976 135.294493 234.384521 135.4563 240.871001L135.4601 241.175976 135.4601 269.065976C135.4601 275.693393 130.087517 281.065976 123.4601 281.065976 116.934643 281.065976 111.625707 275.857432 111.4639 269.370951L111.4601 269.065976 111.4601 241.175976C111.4601 234.548559 116.832683 229.175976 123.4601 229.175976z"/></g></g></svg>